<svg width="40" height="40" viewBox="0 0 40 40" fill="none" xmlns="http://www.w3.org/2000/svg">
<g clip-path="url(#clip0_708_5700)">
<path d="M40 0H0V40H40V0Z" fill="#1C8ADB"/>
<path d="M31.4987 8.82977L4.75018 19.2534C3.88379 19.591 3.93628 20.8343 4.82812 21.0976L11.6252 23.1048L14.1619 31.1539C14.4269 31.9947 15.4923 32.2495 16.1091 31.6198L19.6233 28.0315L26.5186 33.0929C27.3625 33.7123 28.5642 33.2521 28.7785 32.2275L33.3453 10.3936C33.5689 9.32409 32.5167 8.43304 31.4987 8.82977ZM28.1451 13.6753L15.7206 24.6623C15.5968 24.7718 15.5179 24.9234 15.4995 25.0877L15.0211 29.34C15.0055 29.4787 14.8115 29.497 14.77 29.3638L12.8019 23.0221C12.7118 22.7317 12.8293 22.4172 13.0876 22.257L27.7597 13.1572C28.0971 12.9478 28.4426 13.4123 28.1451 13.6753Z" fill="white"/>
</g>
<defs>
<clipPath id="clip0_708_5700">
<rect width="40" height="40" rx="5" fill="white"/>
</clipPath>
</defs>
</svg>
